<?xml version="1.0" standalone="no"?>
<!DOCTYPE svg PUBLIC "-//W3C//DTD SVG 20010904//EN"
 "http://www.w3.org/TR/2001/REC-SVG-20010904/DTD/svg10.dtd">
<svg version="1.0" xmlns="http://www.w3.org/2000/svg"
 width="512.000000pt" height="512.000000pt" viewBox="0 0 512.000000 512.000000"
 preserveAspectRatio="xMidYMid meet">
<metadata>
Created by potrace 1.11, written by Peter Selinger 2001-2013
</metadata>
<g transform="translate(0.000000,512.000000) scale(0.100000,-0.100000)"
fill="#000000" stroke="none">
<path d="M2475 3888 c-71 -27 -134 -53 -139 -58 -4 -5 5 -25 22 -47 17 -21 46
-64 66 -95 l37 -58 -206 0 -205 0 0 -143 0 -144 325 1 c179 1 332 -1 339 -4
12 -4 10 -19 -10 -80 l-24 -76 -217 1 c-120 1 -224 -1 -230 -3 -10 -3 -13
-161 -13 -743 l0 -739 725 0 c573 0 725 3 726 13 0 6 2 339 2 739 1 479 -1
728 -8 729 -5 1 -154 2 -330 4 -176 1 -321 3 -321 4 -8 7 48 146 60 150 8 4
189 6 401 5 l385 -1 0 143 0 144 -206 0 c-113 0 -204 3 -202 8 2 4 29 46 61
94 31 47 57 90 57 95 0 8 -238 98 -279 105 -9 2 -30 -27 -55 -73 -23 -41 -63
-110 -89 -152 l-48 -77 -158 0 -157 0 -28 60 c-30 65 -121 219 -139 236 -9 8
-47 -2 -142 -38z m905 -1053 l0 -75 -440 0 -440 0 0 75 0 75 440 0 440 0 0
-75z m0 -385 l0 -70 -440 0 -440 0 0 70 0 70 440 0 440 0 0 -70z m0 -400 l0
-80 -440 0 -440 0 0 80 0 80 440 0 440 0 0 -80z"/>
<path d="M1408 3832 c-40 -39 -88 -83 -105 -100 l-33 -30 88 -72 c83 -70 345
-329 387 -384 l20 -26 108 108 108 108 -113 114 c-63 63 -147 144 -187 180
-41 36 -79 70 -85 75 -6 6 -35 29 -64 53 l-52 43 -72 -69z"/>
<path d="M1212 2790 c0 -77 3 -140 6 -141 4 0 95 -1 203 -2 l197 -1 -1 -403
-1 -403 -47 -31 c-82 -52 -205 -189 -307 -341 l-52 -77 58 -55 c31 -30 81 -77
111 -104 l54 -50 60 96 c78 125 130 196 184 249 34 35 49 43 79 43 33 0 47
-10 128 -88 92 -90 155 -134 236 -166 45 -18 58 -21 115 -31 17 -3 37 -8 45
-10 8 -2 44 -7 80 -10 36 -4 85 -9 110 -11 25 -3 343 -7 706 -9 l661 -5 11 48
c5 26 21 92 35 147 24 94 26 122 8 110 -28 -17 -1150 -26 -1409 -11 -261 14
-364 57 -522 215 l-55 56 -1 550 c-1 302 -2 556 -3 563 -1 9 -77 12 -345 12
l-344 0 0 -140z"/>
</g>
</svg>
